<?xml version="1.0" encoding="UTF-8" standalone="no"?>
<!-- Created with Inkscape (http://www.inkscape.org/) -->

<svg
   xmlns:dc="http://purl.org/dc/elements/1.1/"
   xmlns:cc="http://creativecommons.org/ns#"
   xmlns:rdf="http://www.w3.org/1999/02/22-rdf-syntax-ns#"
   xmlns:svg="http://www.w3.org/2000/svg"
   xmlns="http://www.w3.org/2000/svg"
   xmlns:xlink="http://www.w3.org/1999/xlink"
   xmlns:sodipodi="http://sodipodi.sourceforge.net/DTD/sodipodi-0.dtd"
   xmlns:inkscape="http://www.inkscape.org/namespaces/inkscape"
   width="31.894695mm"
   height="9.7048073mm"
   viewBox="0 0 31.894695 9.7048073"
   version="1.1"
   id="svg5620"
   inkscape:version="0.92.3 (2405546, 2018-03-11)"
   sodipodi:docname="baobao_logo.svg">
  <defs
     id="defs5614">
    <radialGradient
       inkscape:collect="always"
       xlink:href="#linearGradient5360"
       id="radialGradient5362"
       cx="171.20024"
       cy="102.81383"
       fx="171.20024"
       fy="102.81383"
       r="5.8399448"
       gradientTransform="matrix(0.26458333,0,0,0.36567803,60.531147,111.24799)"
       gradientUnits="userSpaceOnUse" />
    <linearGradient
       inkscape:collect="always"
       id="linearGradient5360">
      <stop
         style="stop-color:#000000;stop-opacity:1;"
         offset="0"
         id="stop5356" />
      <stop
         style="stop-color:#000000;stop-opacity:0;"
         offset="1"
         id="stop5358" />
    </linearGradient>
    <linearGradient
       inkscape:collect="always"
       xlink:href="#linearGradient5360"
       id="linearGradient5352"
       gradientUnits="userSpaceOnUse"
       x1="46.773815"
       y1="108.38693"
       x2="65.377327"
       y2="108.38693" />
    <linearGradient
       inkscape:collect="always"
       xlink:href="#linearGradient5360"
       id="linearGradient5687"
       gradientUnits="userSpaceOnUse"
       x1="46.773815"
       y1="108.38693"
       x2="65.377327"
       y2="108.38693" />
    <linearGradient
       inkscape:collect="always"
       xlink:href="#linearGradient5360"
       id="linearGradient5689"
       gradientUnits="userSpaceOnUse"
       x1="46.773815"
       y1="108.38693"
       x2="65.377327"
       y2="108.38693" />
    <linearGradient
       inkscape:collect="always"
       xlink:href="#linearGradient5360"
       id="linearGradient5691"
       gradientUnits="userSpaceOnUse"
       x1="46.773815"
       y1="108.38693"
       x2="65.377327"
       y2="108.38693" />
    <linearGradient
       inkscape:collect="always"
       xlink:href="#linearGradient5360"
       id="linearGradient5693"
       gradientUnits="userSpaceOnUse"
       x1="46.773815"
       y1="108.38693"
       x2="65.377327"
       y2="108.38693" />
    <linearGradient
       inkscape:collect="always"
       xlink:href="#linearGradient5360"
       id="linearGradient5695"
       gradientUnits="userSpaceOnUse"
       x1="46.773815"
       y1="108.38693"
       x2="65.377327"
       y2="108.38693" />
    <linearGradient
       inkscape:collect="always"
       xlink:href="#linearGradient5360"
       id="linearGradient5697"
       gradientUnits="userSpaceOnUse"
       x1="46.773815"
       y1="108.38693"
       x2="65.377327"
       y2="108.38693" />
    <linearGradient
       inkscape:collect="always"
       xlink:href="#linearGradient5360"
       id="linearGradient5699"
       gradientUnits="userSpaceOnUse"
       x1="46.773815"
       y1="108.38693"
       x2="65.377327"
       y2="108.38693" />
  </defs>
  <sodipodi:namedview
     id="base"
     pagecolor="#ffffff"
     bordercolor="#666666"
     borderopacity="1.0"
     inkscape:pageopacity="0.0"
     inkscape:pageshadow="2"
     inkscape:zoom="3.959798"
     inkscape:cx="60.273439"
     inkscape:cy="18.339805"
     inkscape:document-units="mm"
     inkscape:current-layer="layer1"
     showgrid="false"
     fit-margin-top="0"
     fit-margin-left="0"
     fit-margin-right="0"
     fit-margin-bottom="0"
     inkscape:window-width="1920"
     inkscape:window-height="1017"
     inkscape:window-x="0"
     inkscape:window-y="0"
     inkscape:window-maximized="1" />
  <metadata
     id="metadata5617">
    <rdf:RDF>
      <cc:Work
         rdf:about="">
        <dc:format>image/svg+xml</dc:format>
        <dc:type
           rdf:resource="http://purl.org/dc/dcmitype/StillImage" />
        <dc:title></dc:title>
      </cc:Work>
    </rdf:RDF>
  </metadata>
  <g
     inkscape:label="Layer 1"
     inkscape:groupmode="layer"
     id="layer1"
     transform="translate(-89.885986,-143.98093)">
    <g
       aria-label="Bao"
       style="font-style:normal;font-weight:normal;font-size:10.58333302px;line-height:1.25;font-family:sans-serif;letter-spacing:0px;word-spacing:0px;fill:url(#linearGradient5693);fill-opacity:1;stroke:none;stroke-width:0.26458332"
       id="text12-1-4-8"
       transform="translate(43.112171,39.526573)">
      <path
         d="m 47.817679,108.48512 v 2.8267 h 1.674316 q 0.842326,0 1.245402,-0.34623 0.408244,-0.3514 0.408244,-1.06971 0,-0.72347 -0.408244,-1.06453 -0.403076,-0.34623 -1.245402,-0.34623 z m 0,-3.17294 v 2.32544 h 1.545125 q 0.764811,0 1.136882,-0.28422 0.377238,-0.28938 0.377238,-0.8785 0,-0.58394 -0.377238,-0.87333 -0.372071,-0.28939 -1.136882,-0.28939 z m -1.043864,-0.85782 h 2.666504 q 1.193726,0 1.839681,0.49609 0.645955,0.49609 0.645955,1.41077 0,0.70796 -0.330729,1.12654 -0.330729,0.41858 -0.971517,0.52193 0.769979,0.16537 1.193726,0.69247 0.428914,0.52193 0.428914,1.30741 0,1.03353 -0.702799,1.5968 -0.7028,0.56328 -1.999878,0.56328 h -2.769857 z"
         style="fill:url(#linearGradient5687);fill-opacity:1;stroke-width:0.26458332"
         id="path14-0-1-1"
         inkscape:connector-curvature="0" />
      <path
         d="m 56.618175,109.26026 q -1.152384,0 -1.596801,0.26355 -0.444418,0.26355 -0.444418,0.89917 0,0.50643 0.33073,0.80616 0.335896,0.29455 0.909505,0.29455 0.790649,0 1.266072,-0.5581 0.480591,-0.56328 0.480591,-1.49345 v -0.21188 z m 1.896525,-0.39274 v 3.30213 h -0.950846 v -0.8785 q -0.325561,0.5271 -0.81132,0.78031 -0.485758,0.24805 -1.188558,0.24805 -0.888834,0 -1.415934,-0.49609 -0.521932,-0.50127 -0.521932,-1.33842 0,-0.97669 0.651123,-1.47278 0.656291,-0.4961 1.953369,-0.4961 h 1.333252 v -0.093 q 0,-0.65629 -0.434082,-1.01286 -0.428914,-0.36174 -1.209228,-0.36174 -0.496094,0 -0.96635,0.11886 -0.470255,0.11885 -0.904337,0.35657 v -0.8785 q 0.521932,-0.20154 1.012858,-0.29973 0.490926,-0.10335 0.956014,-0.10335 1.255737,0 1.875854,0.65112 0.620117,0.65113 0.620117,1.97404 z"
         style="fill:url(#linearGradient5689);fill-opacity:1;stroke-width:0.26458332"
         id="path16-8-1-2"
         inkscape:connector-curvature="0" />
      <path
         d="m 62.721162,107.04851 q -0.764811,0 -1.209229,0.59945 -0.444417,0.59428 -0.444417,1.63297 0,1.0387 0.43925,1.63815 0.444417,0.59428 1.214396,0.59428 0.759643,0 1.204061,-0.59945 0.444417,-0.59945 0.444417,-1.63298 0,-1.02836 -0.444417,-1.6278 -0.444418,-0.60462 -1.204061,-0.60462 z m 0,-0.80615 q 1.240234,0 1.948201,0.80615 0.707967,0.80616 0.707967,2.23242 0,1.42111 -0.707967,2.23243 -0.707967,0.80615 -1.948201,0.80615 -1.245402,0 -1.953369,-0.80615 -0.7028,-0.81132 -0.7028,-2.23243 0,-1.42626 0.7028,-2.23242 0.707967,-0.80615 1.953369,-0.80615 z"
         style="fill:url(#linearGradient5691);fill-opacity:1;stroke-width:0.26458332"
         id="path18-7-3-2"
         inkscape:connector-curvature="0" />
    </g>
    <g
       aria-label="Bao"
       style="font-style:normal;font-weight:normal;font-size:10.58333302px;line-height:1.25;font-family:sans-serif;letter-spacing:0px;word-spacing:0px;fill:url(#linearGradient5352);fill-opacity:1;stroke:none;stroke-width:0.26458332"
       id="text12-1-5-5-69"
       transform="rotate(180,84.277248,129.07005)">
      <path
         d="m 47.817679,108.48512 v 2.8267 h 1.674316 q 0.842326,0 1.245402,-0.34623 0.408244,-0.3514 0.408244,-1.06971 0,-0.72347 -0.408244,-1.06453 -0.403076,-0.34623 -1.245402,-0.34623 z m 0,-3.17294 v 2.32544 h 1.545125 q 0.764811,0 1.136882,-0.28422 0.377238,-0.28938 0.377238,-0.8785 0,-0.58394 -0.377238,-0.87333 -0.372071,-0.28939 -1.136882,-0.28939 z m -1.043864,-0.85782 h 2.666504 q 1.193726,0 1.839681,0.49609 0.645955,0.49609 0.645955,1.41077 0,0.70796 -0.330729,1.12654 -0.330729,0.41858 -0.971517,0.52193 0.769979,0.16537 1.193726,0.69247 0.428914,0.52193 0.428914,1.30741 0,1.03353 -0.702799,1.5968 -0.7028,0.56328 -1.999878,0.56328 h -2.769857 z"
         style="fill:url(#linearGradient5695);fill-opacity:1;stroke-width:0.26458332"
         id="path14-0-0-9-1"
         inkscape:connector-curvature="0" />
      <path
         d="m 56.618175,109.26026 q -1.152384,0 -1.596801,0.26355 -0.444418,0.26355 -0.444418,0.89917 0,0.50643 0.33073,0.80616 0.335896,0.29455 0.909505,0.29455 0.790649,0 1.266072,-0.5581 0.480591,-0.56328 0.480591,-1.49345 v -0.21188 z m 1.896525,-0.39274 v 3.30213 h -0.950846 v -0.8785 q -0.325561,0.5271 -0.81132,0.78031 -0.485758,0.24805 -1.188558,0.24805 -0.888834,0 -1.415934,-0.49609 -0.521932,-0.50127 -0.521932,-1.33842 0,-0.97669 0.651123,-1.47278 0.656291,-0.4961 1.953369,-0.4961 h 1.333252 v -0.093 q 0,-0.65629 -0.434082,-1.01286 -0.428914,-0.36174 -1.209228,-0.36174 -0.496094,0 -0.96635,0.11886 -0.470255,0.11885 -0.904337,0.35657 v -0.8785 q 0.521932,-0.20154 1.012858,-0.29973 0.490926,-0.10335 0.956014,-0.10335 1.255737,0 1.875854,0.65112 0.620117,0.65113 0.620117,1.97404 z"
         style="fill:url(#linearGradient5697);fill-opacity:1;stroke-width:0.26458332"
         id="path16-8-8-3-0"
         inkscape:connector-curvature="0" />
      <path
         d="m 62.721162,107.04851 q -0.764811,0 -1.209229,0.59945 -0.444417,0.59428 -0.444417,1.63297 0,1.0387 0.43925,1.63815 0.444417,0.59428 1.214396,0.59428 0.759643,0 1.204061,-0.59945 0.444417,-0.59945 0.444417,-1.63298 0,-1.02836 -0.444417,-1.6278 -0.444418,-0.60462 -1.204061,-0.60462 z m 0,-0.80615 q 1.240234,0 1.948201,0.80615 0.707967,0.80616 0.707967,2.23242 0,1.42111 -0.707967,2.23243 -0.707967,0.80615 -1.948201,0.80615 -1.245402,0 -1.953369,-0.80615 -0.7028,-0.81132 -0.7028,-2.23243 0,-1.42626 0.7028,-2.23242 0.707967,-0.80615 1.953369,-0.80615 z"
         style="fill:url(#linearGradient5699);fill-opacity:1;stroke-width:0.26458332"
         id="path18-7-0-4-4"
         inkscape:connector-curvature="0" />
    </g>
    <path
       style="fill:url(#radialGradient5362);fill-opacity:1;stroke-width:0.13363476"
       d="m 105.0854,150.78465 c -0.51271,-0.27862 -0.80268,-1.00074 -0.80268,-1.99898 0,-1.37969 0.52129,-2.07646 1.55351,-2.07646 1.02961,0 1.5368,0.70565 1.5368,2.13816 0,1.39791 -0.51269,2.14363 -1.46631,2.1328 -0.25927,-0.003 -0.62886,-0.0909 -0.82132,-0.19552 z"
       id="path5354"
       inkscape:connector-curvature="0" />
    <path
       style="stroke-width:0.06681738"
       d="m 105.59686,149.28472 c -0.22587,-0.22588 -0.23069,-0.6855 -0.009,-0.89343 0.19808,-0.18609 0.28158,-0.18285 0.48316,0.0187 0.12067,0.12068 0.164,0.23622 0.164,0.43735 0,0.20113 -0.0433,0.31668 -0.164,0.43735 -0.0902,0.0902 -0.19681,0.16401 -0.2369,0.16401 -0.0401,0 -0.1467,-0.0738 -0.2369,-0.16401 z m 0.43348,-0.13202 c 0.11372,-0.13702 0.061,-0.57762 -0.0797,-0.66572 -0.15135,-0.0948 -0.32832,0.0105 -0.41198,0.2452 -0.11935,0.33479 0.27959,0.67603 0.49163,0.42052 z"
       id="path5537"
       inkscape:connector-curvature="0" />
  </g>
</svg>
